<mxfile host="65bd71144e">
    <diagram id="BND9_GVYWgfwG1xuQf6F" name="Seite-1">
        <mxGraphModel dx="898" dy="1712" grid="1" gridSize="10" guides="1" tooltips="1" connect="1" arrows="1" fold="1" page="1" pageScale="1" pageWidth="827" pageHeight="1169" math="0" shadow="0">
            <root>
                <mxCell id="0"/>
                <mxCell id="1" parent="0"/>
                <mxCell id="2" value="Pizzeria" style="shape=umlFrame;whiteSpace=wrap;html=1;" vertex="1" parent="1">
                    <mxGeometry x="120" y="-30" width="350" height="640" as="geometry"/>
                </mxCell>
                <mxCell id="3" value="Kunde" style="shape=umlActor;verticalLabelPosition=bottom;verticalAlign=top;html=1;" vertex="1" parent="1">
                    <mxGeometry x="650" y="115" width="30" height="60" as="geometry"/>
                </mxCell>
                <mxCell id="4" value="Fahrer" style="shape=umlActor;verticalLabelPosition=bottom;verticalAlign=top;html=1;" vertex="1" parent="1">
                    <mxGeometry x="50" y="300" width="30" height="60" as="geometry"/>
                </mxCell>
                <mxCell id="5" value="Mitarbeiter&lt;br&gt;" style="shape=umlActor;verticalLabelPosition=bottom;verticalAlign=top;html=1;" vertex="1" parent="1">
                    <mxGeometry x="40" y="130" width="30" height="60" as="geometry"/>
                </mxCell>
                <mxCell id="8" value="Bestellanruf" style="ellipse;whiteSpace=wrap;html=1;strokeWidth=2;" vertex="1" parent="1">
                    <mxGeometry x="270" y="120" width="80" height="50" as="geometry"/>
                </mxCell>
                <mxCell id="10" value="" style="edgeStyle=none;html=1;endArrow=none;verticalAlign=bottom;entryX=0;entryY=0.5;entryDx=0;entryDy=0;" edge="1" parent="1" target="8">
                    <mxGeometry width="160" relative="1" as="geometry">
                        <mxPoint x="100" y="145" as="sourcePoint"/>
                        <mxPoint x="280" y="40" as="targetPoint"/>
                    </mxGeometry>
                </mxCell>
                <mxCell id="17" value="Kundendaten erfassen" style="ellipse;whiteSpace=wrap;html=1;strokeWidth=2;" vertex="1" parent="1">
                    <mxGeometry x="270" width="80" height="50" as="geometry"/>
                </mxCell>
                <mxCell id="19" value="&amp;lt;&amp;lt;extend&amp;gt;&amp;gt;" style="align=right;html=1;verticalAlign=bottom;rounded=0;labelBackgroundColor=none;endArrow=open;endSize=12;dashed=1;exitX=0.5;exitY=1;exitDx=0;exitDy=0;startArrow=none;" edge="1" parent="1" source="17">
                    <mxGeometry x="0.5978" y="32" relative="1" as="geometry">
                        <mxPoint x="310" y="120" as="targetPoint"/>
                        <mxPoint x="309.65999999999997" y="250" as="sourcePoint"/>
                        <mxPoint as="offset"/>
                    </mxGeometry>
                </mxCell>
                <mxCell id="20" value="" style="edgeStyle=none;html=1;endArrow=none;rounded=0;labelBackgroundColor=none;dashed=1;exitX=1.018;exitY=0.563;exitDx=0;exitDy=0;exitPerimeter=0;" edge="1" source="18" parent="1">
                    <mxGeometry relative="1" as="geometry">
                        <mxPoint x="310" y="73" as="targetPoint"/>
                    </mxGeometry>
                </mxCell>
                <mxCell id="22" value="" style="edgeStyle=none;html=1;endArrow=none;verticalAlign=bottom;fontColor=default;exitX=1;exitY=0.5;exitDx=0;exitDy=0;" edge="1" parent="1" source="17">
                    <mxGeometry width="160" relative="1" as="geometry">
                        <mxPoint x="440" y="270" as="sourcePoint"/>
                        <mxPoint x="620" y="140" as="targetPoint"/>
                    </mxGeometry>
                </mxCell>
                <mxCell id="23" value="" style="edgeStyle=none;html=1;endArrow=none;verticalAlign=bottom;fontColor=default;exitX=0;exitY=0.4;exitDx=0;exitDy=0;exitPerimeter=0;" edge="1" parent="1" source="17">
                    <mxGeometry width="160" relative="1" as="geometry">
                        <mxPoint x="360" y="325" as="sourcePoint"/>
                        <mxPoint x="100" y="150" as="targetPoint"/>
                    </mxGeometry>
                </mxCell>
                <mxCell id="25" value="Bestellung aufnehmen" style="ellipse;whiteSpace=wrap;html=1;strokeWidth=2;" vertex="1" parent="1">
                    <mxGeometry x="850" y="200" width="80" height="50" as="geometry"/>
                </mxCell>
                <mxCell id="26" value="&amp;lt;&amp;lt;include&amp;gt;&amp;gt;" style="edgeStyle=none;html=1;endArrow=open;verticalAlign=bottom;dashed=1;labelBackgroundColor=none;fontColor=default;" edge="1" parent="1">
                    <mxGeometry width="160" relative="1" as="geometry">
                        <mxPoint x="130" y="160" as="sourcePoint"/>
                        <mxPoint x="290" y="160" as="targetPoint"/>
                    </mxGeometry>
                </mxCell>
                <mxCell id="27" value="&amp;lt;&amp;lt;include&amp;gt;&amp;gt;" style="edgeStyle=none;html=1;endArrow=open;verticalAlign=bottom;dashed=1;labelBackgroundColor=none;fontColor=default;" edge="1" parent="1">
                    <mxGeometry width="160" relative="1" as="geometry">
                        <mxPoint x="889.29" y="340" as="sourcePoint"/>
                        <mxPoint x="889.29" y="260" as="targetPoint"/>
                    </mxGeometry>
                </mxCell>
                <mxCell id="28" value="Selbst abholen" style="ellipse;whiteSpace=wrap;html=1;strokeWidth=2;" vertex="1" parent="1">
                    <mxGeometry x="320" y="420" width="80" height="50" as="geometry"/>
                </mxCell>
                <mxCell id="29" value="Ausliefern" style="ellipse;whiteSpace=wrap;html=1;strokeWidth=2;" vertex="1" parent="1">
                    <mxGeometry x="165" y="420" width="80" height="50" as="geometry"/>
                </mxCell>
                <mxCell id="31" value="" style="edgeStyle=none;html=1;endArrow=none;verticalAlign=bottom;exitX=1;exitY=0.5;exitDx=0;exitDy=0;" edge="1" parent="1" source="8">
                    <mxGeometry width="160" relative="1" as="geometry">
                        <mxPoint x="350" y="145" as="sourcePoint"/>
                        <mxPoint x="620" y="145" as="targetPoint"/>
                    </mxGeometry>
                </mxCell>
                <mxCell id="32" value="Lieferung gewÃ¼nscht" style="shape=note;size=15;spacingLeft=5;align=left;whiteSpace=wrap;strokeWidth=2;fontColor=default;html=1;" vertex="1" parent="1">
                    <mxGeometry x="1200" y="545" width="230" height="40" as="geometry"/>
                </mxCell>
                <mxCell id="33" value="&amp;lt;&amp;lt;extend&amp;gt;&amp;gt;" style="align=right;html=1;verticalAlign=bottom;rounded=0;labelBackgroundColor=none;endArrow=open;endSize=12;dashed=1;fontColor=default;" edge="1" parent="1">
                    <mxGeometry y="10" relative="1" as="geometry">
                        <mxPoint x="1000" y="560" as="targetPoint"/>
                        <mxPoint x="1160" y="560" as="sourcePoint"/>
                        <mxPoint as="offset"/>
                    </mxGeometry>
                </mxCell>
                <mxCell id="34" value="" style="edgeStyle=none;html=1;endArrow=none;rounded=0;labelBackgroundColor=none;dashed=1;exitX=0.5;exitY=1;fontColor=default;" edge="1" source="32" parent="1">
                    <mxGeometry relative="1" as="geometry">
                        <mxPoint x="1130" y="600" as="targetPoint"/>
                    </mxGeometry>
                </mxCell>
                <mxCell id="18" value="Falls Kunde neu" style="shape=note;size=0;spacingLeft=5;align=left;whiteSpace=wrap;strokeWidth=2;" vertex="1" parent="1">
                    <mxGeometry x="160" y="50" width="110" height="40" as="geometry"/>
                </mxCell>
            </root>
        </mxGraphModel>
    </diagram>
</mxfile>